# xmcd CD database file
# Copyright (C) 1997 Ti Kan
#
# Track frame offsets:
#  150
#  15999
#  30024
#  52449
#  64188
#  78549
#  91563
#  111810
#  126513
#  141099
#  161613
#  202263
#
# Disc length: 2907 seconds
#
# Revision: 1
# Processed by: cddbd v1.4b41PL1 Copyright (c) Steve Scherf et al.
# Submitted via: CDWizzard Release:4.31
#
DISCID=9f0b590c
DTITLE=Monster Mike Welch - Axe To Grind
DYEAR=1900
DGENRE=
TTITLE0=Did she say
TTITLE1=Palm of her hand
TTITLE2=Axe to grind
TTITLE3=The Elkmont stomp
TTITLE4=Every time you lie
TTITLE5=Afraid of my own tears
TTITLE6=Take your best shot
TTITLE7=She couldn't know
TTITLE8=Time stands still
TTITLE9=That's my sin
TTITLE10=My emptiness
TTITLE11=Cruise control
EXTD=
EXTT0=
EXTT1=
EXTT2=
EXTT3=
EXTT4=
EXTT5=
EXTT6=
EXTT7=
EXTT8=
EXTT9=
EXTT10=
EXTT11=
PLAYORDER=
